<?xml version="1.0" encoding="utf-8"?>
<!-- Generator: Adobe Illustrator 16.0.3, SVG Export Plug-In . SVG Version: 6.00 Build 0)  -->
<!DOCTYPE svg PUBLIC "-//W3C//DTD SVG 1.1//EN" "http://www.w3.org/Graphics/SVG/1.1/DTD/svg11.dtd">
<svg version="1.1" id="Layer_1" xmlns="http://www.w3.org/2000/svg" xmlns:xlink="http://www.w3.org/1999/xlink" x="0px" y="0px"
	 width="24px" height="24px" viewBox="0 0 24 24" enable-background="new 0 0 24 24" fill="currentColor" xml:space="preserve">
<path d="M12.407,23.105c1.235,0,3.53-0.113,3.802-0.362c0.271-0.248,0.43-0.43,0.43-0.904c0-0.476,0-12.108,0-12.108
	s0.046-1.266-1.312-2.127c-1.358-0.86-1.245-1.494-1.245-1.674c0-0.016,0-0.03,0-0.045h0.283V3.701c0,0,0-0.125-0.113-0.125
	s-0.735,0-0.735,0L13.245,3V2.094V1.416c0,0,0.668-0.103,0.837-0.26l-0.158-0.26c0,0-0.826,0.214-2.58,0.214
	c-1.754,0-3.032-0.09-3.982,0.543L7.77,2.219c0,0,0.475-0.328,1.143-0.328c0.667,0,2.387,0.204,2.658,0.204V3l-0.271,0.577
	c0,0-0.622,0-0.735,0c-0.115,0-0.115,0.125-0.115,0.125v2.184h0.283c0,0.015,0,0.03,0,0.045c0,0.18,0.113,0.814-1.244,1.674
	C8.132,8.464,8.178,9.73,8.178,9.73s0,11.633,0,12.108c0,0.475,0.157,0.656,0.429,0.904C8.878,22.992,11.173,23.105,12.407,23.105"
	/>
</svg>
